<?xml version="1.0" encoding="UTF-8"?>
<svg id="uuid-61f5088f-e218-4b5e-a8b7-3fdcc7b55cb3" data-name="Ebene 1" xmlns="http://www.w3.org/2000/svg" viewBox="0 0 28.35 28.35">
  <defs>
    <style>
      .uuid-79c19c55-3c58-41f7-9ee5-a75a723fc673 {
        fill: #36a9e1;
        stroke-width: 0px;
      }
    </style>
  </defs>
  <path class="uuid-79c19c55-3c58-41f7-9ee5-a75a723fc673" d="m27.05,23.57L16.09,2.92c-.65-1.22-2.39-1.25-3.08-.04L1.32,23.53c-.66,1.17.18,2.62,1.53,2.62h22.65c1.32,0,2.17-1.41,1.55-2.58Zm-11.2-.97c0,.69-.56,1.26-1.26,1.26s-1.26-.56-1.26-1.26v-.89c0-.69.56-1.26,1.26-1.26s1.26.56,1.26,1.26v.89Zm0-4.96c0,.69-.56,1.26-1.26,1.26s-1.26-.56-1.26-1.26V7c0-.69.56-1.26,1.26-1.26s1.26.56,1.26,1.26v10.63Z"/>
</svg>